#N canvas 0 23 1440 802 12;
#X obj 433 37 oscparse;
#X obj 433 69 list trim;
#X obj 433 130 route test;
#X obj 461 102 print trim;
#X obj 507 69 print oscparse;
#X obj 462 158 print /test;
#X obj 433 5 iemnet/udpreceive 14000;
#X obj 327 217 unpack f;
#X floatatom 327 249 5 0 3 0 - - -;
#X obj 180 347 spigot;
#X obj 281 347 spigot;
#X obj 579 379 spigot;
#X obj 631 378 spigot;
#X obj 786 415 hradio 15 1 0 15 empty empty empty 0 -8 0 10 -261682
-260097 -1 2;
#X obj 786 383 i;
#X obj 493 316 unpack f;
#X floatatom 493 348 5 0 0 0 - - -;
#X msg 785 519 261.63;
#X obj 786 681 cyclone/out~;
#X obj 786 610 osc~;
#X obj 786 646 *~;
#X obj 786 443 mod 3;
#X obj 712 557 vline~;
#X msg 581 519 1 125 \, 0.7 5 200 \, 0 100 100;
#X obj 834 383 + 1;
#X obj 786 582 * 2;
#X msg 579 461 0.5;
#X msg 632 461 2;
#X obj 433 252 print /test/direction;
#X obj 504 217 print /test/unit;
#X floatatom 631 347 5 0 0 0 - - -;
#X floatatom 579 348 5 0 0 0 - - -;
#X floatatom 281 316 5 0 0 0 - - -;
#X floatatom 180 316 5 0 0 0 - - -;
#X obj 631 315 == 0;
#X msg 786 284 0;
#X obj 579 316 == 1;
#X obj 281 284 == 2;
#X obj 180 284 == 3;
#X msg 839 519 293.66;
#X msg 898 519 329.63;
#X msg 958 519 349.23;
#X msg 1014 519 392;
#X msg 1104 519 493.88;
#X obj 180 475 hradio 15 1 0 15 empty empty empty 0 -8 0 10 -203904
-4160 -1 1;
#X obj 180 411 i;
#X obj 180 379 metro 400;
#X msg 143 582 261.63;
#X obj 197 710 cyclone/out~;
#X obj 197 646 osc~;
#X obj 197 678 *~;
#X obj 180 443 mod 3;
#X obj 93 646 vline~;
#X msg -57 582 1 125 \, 0.7 5 200 \, 0 100 100;
#X obj 228 411 + 1;
#X msg 112 348 0;
#X msg 197 582 293.66;
#X msg 256 582 329.63;
#X msg 316 582 349.23;
#X msg 372 582 392;
#X msg 445 582 493.88;
#X obj 197 614 * 1;
#X msg 502 582 523.25;
#X msg 553 582 587.33;
#X msg 606 582 659.26;
#X msg 663 582 698.46;
#X obj 180 503 select 0 1 2 3 4 5 6 7 8 9 10;
#X msg 1159 519 523.25;
#X msg 1210 519 587.33;
#X msg 1263 519 659.26;
#X msg 1320 519 698.46;
#X obj 786 475 select 0 1 2 3 4 5 6 7 8 9 10;
#X msg 407 582 440;
#X msg 1069 519 440;
#X msg 281 379 -1;
#X msg 317 379 1;
#X obj 786 316 metro 600;
#X floatatom 870 347 5 0 0 0 - - -;
#X obj 870 315 +;
#X obj 870 224 unpack f;
#X floatatom 870 252 5 0 0 0 - - -;
#X obj 870 283 * 10;
#X msg 930 284 200;
#X floatatom 930 316 5 0 0 0 - - -;
#X floatatom 241 215 5 0 0 0 - - -;
#X obj 241 187 +;
#X obj 242 102 unpack f;
#X floatatom 242 134 5 0 0 0 - - -;
#X obj 242 165 * 10;
#X msg 286 162 200;
#X floatatom 286 194 5 0 0 0 - - -;
#X obj 930 252 loadbang;
#X obj 286 130 loadbang;
#X obj 995 190 cyclone/out~;
#X obj 995 158 readsf~ 2;
#X obj 433 187 route direction unit startd startu speed endgame;
#X msg 995 102 open gameover_sound.wav \, start;
#X msg 747 285 1;
#X obj 781 100 cyclone/out~;
#X obj 781 68 readsf~ 2;
#X msg 781 30 open eatapple_sound.wav \, start;
#X text 161 248 4 direction conditions;
#X text 275 404 up mode or down mode of arpeggio;
#X text 505 485 change the frequency of notes;
#X text 629 266 initilised statement;
#X text 985 293 a speed range from 200 to 600;
#X text 986 315 metro argument = 200 + 10*speed;
#X connect 0 0 1 0;
#X connect 0 0 4 0;
#X connect 1 0 2 0;
#X connect 1 0 3 0;
#X connect 2 0 5 0;
#X connect 2 0 95 0;
#X connect 6 0 0 0;
#X connect 7 0 8 0;
#X connect 8 0 34 0;
#X connect 8 0 36 0;
#X connect 8 0 37 0;
#X connect 8 0 38 0;
#X connect 9 0 74 0;
#X connect 9 0 46 0;
#X connect 10 0 46 0;
#X connect 10 0 75 0;
#X connect 11 0 26 0;
#X connect 11 0 76 0;
#X connect 12 0 27 0;
#X connect 12 0 76 0;
#X connect 13 0 71 0;
#X connect 14 0 21 0;
#X connect 14 0 24 0;
#X connect 15 0 16 0;
#X connect 16 0 21 1;
#X connect 16 0 51 1;
#X connect 17 0 25 0;
#X connect 19 0 20 0;
#X connect 20 0 18 0;
#X connect 20 0 18 1;
#X connect 21 0 13 0;
#X connect 22 0 20 1;
#X connect 23 0 22 0;
#X connect 24 0 14 1;
#X connect 25 0 19 0;
#X connect 26 0 25 1;
#X connect 27 0 25 1;
#X connect 30 0 12 0;
#X connect 30 0 12 1;
#X connect 31 0 11 0;
#X connect 31 0 11 1;
#X connect 32 0 10 0;
#X connect 32 0 10 1;
#X connect 33 0 9 0;
#X connect 33 0 9 1;
#X connect 34 0 30 0;
#X connect 35 0 76 0;
#X connect 36 0 31 0;
#X connect 37 0 32 0;
#X connect 38 0 33 0;
#X connect 39 0 25 0;
#X connect 40 0 25 0;
#X connect 41 0 25 0;
#X connect 42 0 25 0;
#X connect 43 0 25 0;
#X connect 44 0 66 0;
#X connect 45 0 51 0;
#X connect 45 0 54 0;
#X connect 46 0 45 0;
#X connect 47 0 61 0;
#X connect 49 0 50 0;
#X connect 50 0 48 0;
#X connect 50 0 48 1;
#X connect 51 0 44 0;
#X connect 52 0 50 1;
#X connect 53 0 52 0;
#X connect 54 0 45 1;
#X connect 55 0 46 0;
#X connect 56 0 61 0;
#X connect 57 0 61 0;
#X connect 58 0 61 0;
#X connect 59 0 61 0;
#X connect 60 0 61 0;
#X connect 61 0 49 0;
#X connect 62 0 61 0;
#X connect 63 0 61 0;
#X connect 64 0 61 0;
#X connect 65 0 61 0;
#X connect 66 0 47 0;
#X connect 66 0 53 0;
#X connect 66 1 56 0;
#X connect 66 1 53 0;
#X connect 66 2 57 0;
#X connect 66 2 53 0;
#X connect 66 3 58 0;
#X connect 66 3 53 0;
#X connect 66 4 59 0;
#X connect 66 4 53 0;
#X connect 66 5 53 0;
#X connect 66 5 72 0;
#X connect 66 6 60 0;
#X connect 66 6 53 0;
#X connect 66 7 62 0;
#X connect 66 7 53 0;
#X connect 66 8 63 0;
#X connect 66 8 53 0;
#X connect 66 9 64 0;
#X connect 66 9 53 0;
#X connect 66 10 65 0;
#X connect 66 10 53 0;
#X connect 67 0 25 0;
#X connect 68 0 25 0;
#X connect 69 0 25 0;
#X connect 70 0 25 0;
#X connect 71 0 17 0;
#X connect 71 0 23 0;
#X connect 71 1 39 0;
#X connect 71 1 23 0;
#X connect 71 2 40 0;
#X connect 71 2 23 0;
#X connect 71 3 41 0;
#X connect 71 3 23 0;
#X connect 71 4 42 0;
#X connect 71 4 23 0;
#X connect 71 5 23 0;
#X connect 71 5 73 0;
#X connect 71 6 43 0;
#X connect 71 6 23 0;
#X connect 71 7 67 0;
#X connect 71 7 23 0;
#X connect 71 8 68 0;
#X connect 71 8 23 0;
#X connect 71 9 69 0;
#X connect 71 9 23 0;
#X connect 71 10 70 0;
#X connect 71 10 23 0;
#X connect 72 0 61 0;
#X connect 73 0 25 0;
#X connect 74 0 54 1;
#X connect 75 0 54 1;
#X connect 76 0 14 0;
#X connect 77 0 76 1;
#X connect 78 0 77 0;
#X connect 79 0 80 0;
#X connect 80 0 81 0;
#X connect 81 0 78 0;
#X connect 82 0 83 0;
#X connect 83 0 78 1;
#X connect 84 0 46 1;
#X connect 85 0 84 0;
#X connect 86 0 87 0;
#X connect 87 0 88 0;
#X connect 88 0 85 0;
#X connect 89 0 90 0;
#X connect 90 0 85 1;
#X connect 91 0 82 0;
#X connect 92 0 89 0;
#X connect 94 0 93 0;
#X connect 94 1 93 1;
#X connect 95 0 7 0;
#X connect 95 0 28 0;
#X connect 95 1 29 0;
#X connect 95 1 15 0;
#X connect 95 1 100 0;
#X connect 95 2 97 0;
#X connect 95 2 27 0;
#X connect 95 2 7 0;
#X connect 95 3 15 0;
#X connect 95 4 79 0;
#X connect 95 4 86 0;
#X connect 95 5 96 0;
#X connect 95 5 55 0;
#X connect 95 5 35 0;
#X connect 96 0 94 0;
#X connect 97 0 76 0;
#X connect 99 0 98 0;
#X connect 99 1 98 1;
#X connect 100 0 99 0;
